<svg xmlns:xlink="http://www.w3.org/1999/xlink"   viewBox="0 0 21 23" xmlns="http://www.w3.org/2000/svg" class="" style="color:white;font-size:22px" fill="white" width="21"  height="23" ><path d="M15.22 6.049v.05h3.626c.304 0 .595.112.808.309.214.197.333.464.333.741v12.1c0 .86-.37 1.687-1.03 2.297-.662.61-1.559.953-2.495.953H4.546a3.682 3.682 0 0 1-2.494-.953c-.661-.61-1.031-1.436-1.031-2.297v-12.1c0-.277.119-.544.333-.741.213-.197.504-.309.808-.309h3.625V4.949c0-1.152.496-2.258 1.38-3.075C8.052 1.058 9.252.6 10.504.6c1.252 0 2.452.46 3.337 1.275.884.817 1.38 1.923 1.38 3.075v1.1Zm-2.333.05h.05V4.949c0-.598-.257-1.17-.714-1.592a2.538 2.538 0 0 0-1.719-.658c-.644 0-1.263.236-1.72.658a2.168 2.168 0 0 0-.713 1.592V6.099h4.816Zm-9.533 2.1h-.05v11.05c0 .306.132.6.365.815.233.215.549.335.877.335h11.916c.328 0 .644-.12.877-.335.233-.216.365-.509.365-.815V8.199H15.221V9.349c0 .277-.12.544-.333.741a1.194 1.194 0 0 1-.809.309c-.304 0-.595-.111-.809-.309a1.009 1.009 0 0 1-.333-.741V8.199H8.071V9.349c0 .277-.12.544-.333.741a1.194 1.194 0 0 1-.809.309c-.304 0-.595-.111-.809-.309a1.009 1.009 0 0 1-.333-.741V8.199H3.354Z" stroke="#FDFCFC" stroke-width="0.1px" fill="#FFFFFF"></path></svg>