<svg xmlns:xlink="http://www.w3.org/1999/xlink"   viewBox="0 0 14 14" xmlns="http://www.w3.org/2000/svg" style="fill: rgb(255, 255, 255); font-size: 14px;" width="1"  height="1" ><path d="M13.435 1.935A.85.85 0 0 0 12.233.733l1.202 1.202ZM.565 12.4a.85.85 0 1 0 1.202 1.202L.565 12.4Zm11.668 1.202a.85.85 0 1 0 1.202-1.202l-1.202 1.202ZM1.767.732A.85.85 0 1 0 .565 1.936L1.767.733Zm10.466 0L.565 12.4l1.202 1.202L13.435 1.935 12.233.733ZM13.435 12.4 1.767.733.565 1.935l11.668 11.667 1.202-1.202Z" fill="#FFFFFF"></path></svg>