<svg xmlns:xlink="http://www.w3.org/1999/xlink" width="18" height="18" viewBox="0 0 20 21" xmlns="http://www.w3.org/2000/svg" fill="white" alt="discount_icon"><path fill-rule="evenodd" clip-rule="evenodd" d="m8.744 3.662.832-.803.832.803a3 3 0 0 0 2.504.813l1.146-.162.2 1.134a3 3 0 0 0 1.55 2.132l1.018.54-.505 1.03a3 3 0 0 0 0 2.639l.505 1.031-1.018.54a3 3 0 0 0-1.55 2.131l-.2 1.134-1.146-.162a3 3 0 0 0-2.504.813l-.832.804-.832-.804a3 3 0 0 0-2.504-.813l-1.146.162-.2-1.134a3 3 0 0 0-1.55-2.132l-1.018-.539.505-1.031a3 3 0 0 0 0-2.638l-.505-1.032 1.018-.539a3 3 0 0 0 1.55-2.132l.2-1.134 1.146.162a3 3 0 0 0 2.504-.813ZM8.88.75a1 1 0 0 1 1.39 0l1.527 1.475a1 1 0 0 0 .834.27l2.104-.296a1 1 0 0 1 1.125.817l.366 2.086a1 1 0 0 0 .517.71l1.874.993a1 1 0 0 1 .43 1.324l-.93 1.901a1 1 0 0 0 0 .88l.93 1.9a1 1 0 0 1-.43 1.324l-1.874.993a1 1 0 0 0-.517.71l-.366 2.087a1 1 0 0 1-1.125.817l-2.104-.297a1 1 0 0 0-.834.27l-1.527 1.475a1 1 0 0 1-1.39 0l-1.527-1.474a1 1 0 0 0-.834-.271l-2.104.297a1 1 0 0 1-1.125-.817l-.366-2.087a1 1 0 0 0-.517-.71l-1.874-.993a1 1 0 0 1-.43-1.323l.93-1.902a1 1 0 0 0 0-.879l-.93-1.901a1 1 0 0 1 .43-1.324l1.874-.992a1 1 0 0 0 .517-.711l.366-2.086a1 1 0 0 1 1.125-.817l2.104.297a1 1 0 0 0 .834-.271L8.881.749Zm4.524 7.31a1 1 0 0 0-1.413-1.415l-6.245 6.234a1 1 0 1 0 1.413 1.416l6.245-6.235Zm-4.87-.188A1.56 1.56 0 0 1 6.974 9.43 1.56 1.56 0 1 1 8.535 7.87Zm3.642 6.754a1.56 1.56 0 0 0 1.561-1.559 1.56 1.56 0 0 0-1.56-1.558 1.56 1.56 0 1 0 0 3.117Z" fill="#FFFFFF"></path></svg>