<svg xmlns:xlink="http://www.w3.org/1999/xlink" data-name="Layer 1" xmlns="http://www.w3.org/2000/svg" viewBox="0 0 24 24"   style="height: 24px; width: 22px;" width="1"  height="1" ><defs><linearGradient id="FooterHomeP_svg__a" x1="4.41" y1="86.79" x2="16.37" y2="74.73" gradientTransform="matrix(1 0 0 -1 0 93.7)" gradientUnits="userSpaceOnUse"><stop offset="0" stop-color="#fe84b4"></stop><stop offset="0" stop-color="#ffeaf2"></stop><stop offset="0.12" stop-color="#fe84b4"></stop><stop offset="0.4" stop-color="#e31c69"></stop><stop offset="0.68" stop-color="#cd135a"></stop><stop offset="1" stop-color="#890b3a"></stop></linearGradient><linearGradient id="FooterHomeP_svg__a" x1="4.41" y1="86.79" x2="16.37" y2="74.73" gradientTransform="matrix(1 0 0 -1 0 93.7)" gradientUnits="userSpaceOnUse"><stop offset="0" stop-color="#fe84b4"></stop><stop offset="0" stop-color="#ffeaf2"></stop><stop offset="0.12" stop-color="#fe84b4"></stop><stop offset="0.4" stop-color="#e31c69"></stop><stop offset="0.68" stop-color="#cd135a"></stop><stop offset="1" stop-color="#890b3a"></stop></linearGradient></defs><path d="M20 8.12 14 3a3.07 3.07 0 0 0-4 0L4 8.12a2.77 2.77 0 0 0-.74 1 2.8 2.8 0 0 0-.26 1.2v8.51a2.88 2.88 0 0 0 .88 2.06 3 3 0 0 0 2.12.86h12a3 3 0 0 0 2.12-.86 2.88 2.88 0 0 0 .88-2.06v-8.52a2.91 2.91 0 0 0-.26-1.2 2.77 2.77 0 0 0-.74-.99ZM14 19.8h-4v-4.87a1 1 0 0 1 .29-.69A1 1 0 0 1 11 14h2a1 1 0 0 1 .71.28 1 1 0 0 1 .29.69Z" style="" fill="url(&quot;#FooterHomeP_svg__a&quot;)"></path></svg>