<svg xmlns:xlink="http://www.w3.org/1999/xlink"   viewBox="0 0 16 16" fill="none" xmlns="http://www.w3.org/2000/svg" alt="insta_icon" class="cursor" width="1"  height="1" ><path d="M5.67 8.006a2.335 2.335 0 1 1 4.67-.001 2.335 2.335 0 0 1-4.67.001Zm-1.262 0a3.597 3.597 0 1 0 7.194.001 3.597 3.597 0 0 0-7.194 0Zm6.495-3.74a.84.84 0 1 0 .84-.84.84.84 0 0 0-.84.84Zm-5.729 9.443c-.682-.031-1.054-.145-1.3-.24a2.176 2.176 0 0 1-.806-.525 2.161 2.161 0 0 1-.524-.805c-.096-.247-.21-.618-.24-1.301-.035-.739-.041-.96-.041-2.832 0-1.87.007-2.092.04-2.831.031-.683.146-1.054.241-1.301.128-.327.28-.56.524-.806.245-.245.478-.397.806-.524.246-.096.618-.21 1.3-.241.739-.034.96-.04 2.83-.04s2.092.006 2.83.04c.684.031 1.054.146 1.301.24.328.128.56.28.806.525.245.245.397.479.524.806.096.246.21.618.241 1.3.034.74.04.961.04 2.832s-.006 2.092-.04 2.832c-.031.683-.145 1.054-.241 1.3a2.17 2.17 0 0 1-.524.806 2.175 2.175 0 0 1-.806.524c-.246.096-.617.21-1.3.241-.739.034-.96.04-2.83.04-1.871 0-2.092-.006-2.83-.04ZM5.117 1.042c-.746.034-1.256.153-1.7.326-.461.179-.852.419-1.241.808-.39.39-.63.78-.808 1.241-.173.445-.292.955-.326 1.7-.034.748-.042.987-.042 2.89 0 1.902.008 2.14.042 2.888.034.746.153 1.255.326 1.7.179.461.418.852.808 1.241.39.39.78.63 1.24.809.446.173.955.291 1.7.325.748.034.986.042 2.888.042s2.141-.008 2.888-.042c.746-.034 1.255-.152 1.7-.325.46-.18.85-.42 1.24-.809.39-.389.63-.78.809-1.24.173-.446.292-.955.325-1.701.034-.748.042-.986.042-2.889 0-1.902-.008-2.141-.042-2.888-.034-.746-.152-1.256-.325-1.7a3.447 3.447 0 0 0-.808-1.242c-.39-.39-.78-.63-1.24-.808-.446-.173-.956-.292-1.7-.326C10.146 1.008 9.906 1 8.005 1s-2.141.008-2.888.042Z" fill="#000"></path></svg>