<svg xmlns:xlink="http://www.w3.org/1999/xlink"   viewBox="0 0 16 16" fill="none" xmlns="http://www.w3.org/2000/svg" width="1"  height="1" ><path d="M13.94 4.498c-1.825 1.448-3.647 2.896-5.472 4.343-.29.227-.472.227-.758-.004L1.553 3.952a39.397 39.397 0 0 0-.531-.41c-.015.044-.022.059-.022.073v8.264c0 .015.004.03.004.044.014.209.128.337.326.381.099.022.201.03.304.03h12.918c.505 0 .63-.125.63-.631V3.524c-.447.344-.847.66-1.242.974Z" fill="#000"></path><path d="M14.174 3H2.004c2.052 1.63 4.068 3.228 6.087 4.834C10.11 6.228 12.118 4.63 14.174 3Z" fill="#000"></path></svg>