<svg xmlns:xlink="http://www.w3.org/1999/xlink" data-name="Layer 1" xmlns="http://www.w3.org/2000/svg" viewBox="0 0 24 24"   style="height: 24px; width: 22px;" width="1"  height="1" ><path d="M18 7h-.35A3.37 3.37 0 0 0 18 5.5a3.47 3.47 0 0 0-.59-1.95A3.49 3.49 0 0 0 12 3.06a3.48 3.48 0 0 0-5.41.49A3.47 3.47 0 0 0 6 5.5 3.37 3.37 0 0 0 6.35 7H6a3 3 0 0 0-3 3v2a1 1 0 0 0 .29.71A1 1 0 0 0 4 13h1v6a3 3 0 0 0 .88 2.12A3 3 0 0 0 8 22h8a3 3 0 0 0 2.12-.88A3 3 0 0 0 19 19v-6h1a1 1 0 0 0 .71-.29A1 1 0 0 0 21 12v-2a3 3 0 0 0-3-3Zm-7 13H8a1 1 0 0 1-.71-.29A1 1 0 0 1 7 19v-6h4Zm0-9H5v-1a1 1 0 0 1 1-1h5Zm0-4H9.5a1.5 1.5 0 0 1-.83-.25 1.58 1.58 0 0 1-.56-.67 1.51 1.51 0 0 1 1.1-2 1.41 1.41 0 0 1 .86.09 1.47 1.47 0 0 1 .68.55 1.55 1.55 0 0 1 .25.78Zm2-1.5a1.55 1.55 0 0 1 .25-.83 1.47 1.47 0 0 1 .68-.55 1.41 1.41 0 0 1 .86-.12 1.51 1.51 0 0 1 1.1 2.05 1.58 1.58 0 0 1-.56.67 1.5 1.5 0 0 1-.83.28H13ZM17 19a1 1 0 0 1-.29.71A1 1 0 0 1 16 20h-3v-7h4Zm2-8h-6V9h5a1 1 0 0 1 1 1Z" style="fill: rgb(0, 0, 0);"></path></svg>