<svg xmlns:xlink="http://www.w3.org/1999/xlink"   viewBox="0 0 16 16" fill="none" xmlns="http://www.w3.org/2000/svg" style="color: black;" width="16"  height="16" ><path fill-rule="evenodd" clip-rule="evenodd" d="M6.54 1h.77l.477.063a5.83 5.83 0 0 1 4.064 2.58 5.865 5.865 0 0 1-.18 6.82c-.037.055-.077.11-.119.166l-.038.053.061.052 3.126 3.133c.106.12.201.247.286.382l.013.021v.259l-.044.102a.612.612 0 0 1-1.025.155c-.663-.655-1.33-1.327-1.998-2l-1.201-1.207-.062-.058c-.059.046-.117.09-.173.13l-.079.059a5.8 5.8 0 0 1-5.01.94 5.744 5.744 0 0 1-3.244-2.217 5.642 5.642 0 0 1-1.039-2.41 4.85 4.85 0 0 1-.098-.537L1 7.316 1 7.308V6.43l.001-.007c.013-.08.024-.161.036-.242.033-.23.066-.462.126-.703a5.802 5.802 0 0 1 1.979-3.132 5.725 5.725 0 0 1 2.68-1.253h.004L6.541 1Zm3.115 1.852a4.907 4.907 0 1 1-6.807 6.801 4.908 4.908 0 0 1-.45-4.605 4.901 4.901 0 0 1 1.063-1.59C5.097 1.824 7.74 1.57 9.655 2.852Z" fill="#757575" stroke="#757575" stroke-width="0.5px"></path></svg>