<svg xmlns:xlink="http://www.w3.org/1999/xlink"   viewBox="0 0 25 25" fill="none" xmlns="http://www.w3.org/2000/svg" style="font-size: 22px; fill: blue;" width="1"  height="1" ><path d="M21.951 4.252a6.95 6.95 0 0 0-4.361-1.965 6.984 6.984 0 0 0-4.61 1.306 6.986 6.986 0 0 0-4.873-1.297A6.933 6.933 0 0 0 3.64 4.61a6.695 6.695 0 0 0-1.664 4.68 6.714 6.714 0 0 0 2.03 4.54l8.192 8.044a1.1 1.1 0 0 0 .78.32 1.117 1.117 0 0 0 .781-.32l8.191-8.044a6.764 6.764 0 0 0 1.495-2.197 6.665 6.665 0 0 0 0-5.183 6.763 6.763 0 0 0-1.495-2.197Zm-1.55 8.055-7.422 7.277-7.42-7.277a4.596 4.596 0 0 1-1.282-2.358 4.544 4.544 0 0 1 .263-2.66 4.64 4.64 0 0 1 1.718-2.072 4.766 4.766 0 0 1 2.598-.793 4.716 4.716 0 0 1 3.299 1.35 1.103 1.103 0 0 0 .78.32 1.117 1.117 0 0 0 .781-.32 4.748 4.748 0 0 1 3.252-1.123c1.19.044 2.318.53 3.156 1.36a4.571 4.571 0 0 1 1.36 3.112 4.561 4.561 0 0 1-1.171 3.184h.088Z" fill="#000"></path></svg>