<svg xmlns:xlink="http://www.w3.org/1999/xlink"   viewBox="0 0 19 20" xmlns="http://www.w3.org/2000/svg" fill="white" alt="person_icon" style="width:19px;height:19px" width="1"  height="1" ><path d="M9.5 0C4.253 0 0 4.367 0 9.753c0 5.387 4.253 9.753 9.5 9.753S19 15.14 19 9.753C19 4.367 14.747 0 9.5 0Zm0 2.714c2.126 0 3.848 1.768 3.848 3.95 0 2.183-1.722 3.952-3.848 3.952s-3.848-1.77-3.848-3.951c0-2.183 1.722-3.951 3.848-3.951Zm0 15.344c-2.445 0-4.636-1.114-6.12-2.874 1.234-2.151 3.512-3.596 6.12-3.596s4.886 1.445 6.12 3.596c-1.484 1.76-3.675 2.874-6.12 2.874Z" fill="#FFFFFF"></path></svg>