<svg xmlns:xlink="http://www.w3.org/1999/xlink"   viewBox="0 0 16 16" fill="none" xmlns="http://www.w3.org/2000/svg" alt="pinterest_icon" class="cursor" width="1"  height="1" ><path d="M7.636 1.047c-2.273.26-4.538 2.144-4.631 4.835-.059 1.643.397 2.875 1.923 3.222.662-1.197-.214-1.462-.35-2.328-.56-3.548 3.995-5.969 6.378-3.49C12.606 5 11.52 10.278 8.86 9.73c-2.548-.524 1.247-4.725-.786-5.55-1.653-.67-2.532 2.05-1.748 3.402-.46 2.325-1.449 4.515-1.048 7.43 1.299-.965 1.737-2.815 2.096-4.744.653.406 1.001.829 1.835.895 3.072.243 4.788-3.143 4.369-6.266-.373-2.77-3.07-4.178-5.942-3.85Z" fill="#000"></path></svg>