<svg xmlns:xlink="http://www.w3.org/1999/xlink" data-name="Layer 1" xmlns="http://www.w3.org/2000/svg" viewBox="0 0 24 24"   style="height: 24px; width: 22px;" width="1"  height="1" ><path d="M15.7 12.71A6 6 0 0 0 12 2a6 6 0 0 0-5.77 7.68 5.93 5.93 0 0 0 2 3 10 10 0 0 0-6.22 8.18.86.86 0 0 0 0 .39 1.06 1.06 0 0 0 .18.35A1 1 0 0 0 3 22a1 1 0 0 0 .73-.22 1 1 0 0 0 .38-.67 8 8 0 0 1 15.9 0 1 1 0 0 0 .32.64A1.06 1.06 0 0 0 21 22h.11a1 1 0 0 0 .66-.37 1 1 0 0 0 .23-.73 10 10 0 0 0-6.25-8.19ZM12 12a4 4 0 0 1-2.23-.67 4 4 0 0 1-.6-6.16 4 4 0 0 1 2-1.09A4 4 0 1 1 12 12Z" style="fill: rgb(0, 0, 0);"></path></svg>