<svg xmlns:xlink="http://www.w3.org/1999/xlink" xmlns="http://www.w3.org/2000/svg" viewBox="0 0 32 33" xml:space="preserve"   style="font-size: 45px;" width="1"  height="1" ><path d="M9 .5h14c4.7 0 8.5 3.8 8.5 8.5v14c0 4.7-3.8 8.5-8.5 8.5H9C4.3 31.5.5 27.7.5 23V9C.5 4.3 4.3.5 9 .5z" style="" stroke="#000000" fill="#FFFFFF"></path><path d="M22.3 11.8c.4.4.7.9.9 1.4.2.5.3 1.1.3 1.6 0 .6-.1 1.1-.3 1.6-.2.5-.5 1-.9 1.4l-5.6 5.6s-.1 0-.1.1h-.2s-.1 0-.1-.1l-5.6-5.6C10 17 9.5 16 9.5 14.9c0-1.1.3-2.1 1-2.9.7-.8 1.7-1.3 2.7-1.5 1.1-.1 2.1.2 3 .8l.3.2.3-.2c.8-.6 1.8-.9 2.8-.8 1.1.1 2 .5 2.7 1.3z" style="" stroke="#000000" fill="none"></path></svg>