<svg xmlns:xlink="http://www.w3.org/1999/xlink" width="18" height="18" viewBox="0 0 21 20" xmlns="http://www.w3.org/2000/svg" alt="favorite_icon" class="cursor" fill="white"><path d="M19.071 2.37A6.639 6.639 0 0 0 14.908.5a6.675 6.675 0 0 0-4.4 1.244A6.677 6.677 0 0 0 5.855.507a6.622 6.622 0 0 0-4.263 2.204A6.374 6.374 0 0 0 .005 7.172a6.394 6.394 0 0 0 1.939 4.326l7.818 7.666a1.051 1.051 0 0 0 .745.304 1.066 1.066 0 0 0 .745-.304l7.82-7.666a6.446 6.446 0 0 0 1.427-2.094 6.342 6.342 0 0 0 0-4.94 6.445 6.445 0 0 0-1.428-2.093Zm-1.48 7.677-7.084 6.936-7.084-6.936A4.378 4.378 0 0 1 2.201 7.8a4.324 4.324 0 0 1 .25-2.535 4.423 4.423 0 0 1 1.64-1.975 4.555 4.555 0 0 1 2.48-.754 4.505 4.505 0 0 1 3.15 1.286 1.051 1.051 0 0 0 .744.304 1.067 1.067 0 0 0 .746-.304 4.536 4.536 0 0 1 3.103-1.07 4.524 4.524 0 0 1 3.013 1.296c.8.791 1.264 1.851 1.298 2.965a4.342 4.342 0 0 1-1.117 3.034h.083Z" fill="#FFFFFF"></path></svg>