<svg xmlns:xlink="http://www.w3.org/1999/xlink"   viewBox="0 0 16 16" fill="none" xmlns="http://www.w3.org/2000/svg" width="1"  height="1" ><path d="M15.229 3.417c-.463.199-.949.337-1.446.412.232-.04.575-.459.711-.629.207-.256.365-.548.466-.862 0-.023.023-.056 0-.073a.08.08 0 0 0-.077 0 7.31 7.31 0 0 1-1.712.666.12.12 0 0 1-.12-.03 1.661 1.661 0 0 0-.15-.157 3.119 3.119 0 0 0-.817-.529 2.874 2.874 0 0 0-1.273-.21 3.08 3.08 0 0 0-1.21.333c-.371.204-.697.48-.958.812-.275.343-.473.74-.582 1.165a3.2 3.2 0 0 0-.03 1.231c0 .07 0 .08-.06.07-2.37-.35-4.314-1.191-5.903-2.998-.07-.08-.107-.08-.163 0-.692 1.051-.356 2.715.508 3.537.117.11.236.216.363.316a2.967 2.967 0 0 1-1.137-.316c-.067-.043-.103-.02-.107.06-.01.11-.01.222 0 .333a3.023 3.023 0 0 0 1.862 2.409c.12.051.247.09.376.116a3.398 3.398 0 0 1-1.114.033c-.08-.016-.11.027-.08.103.489 1.331 1.55 1.737 2.327 1.964.107.016.213.016.333.043l-.02.02c-.23.419-1.157.702-1.583.848a5.684 5.684 0 0 1-2.426.313c-.13-.02-.16-.017-.193 0-.034.017 0 .053.036.086a7.955 7.955 0 0 0 2.128.965c2.919.806 6.203.213 8.394-1.966 1.722-1.71 2.327-4.07 2.327-6.432 0-.09.11-.143.173-.19.436-.34.82-.74 1.14-1.19a.35.35 0 0 0 .08-.24c0-.05 0-.04-.063-.013Z" fill="#000"></path></svg>