<svg xmlns:xlink="http://www.w3.org/1999/xlink"   viewBox="0 0 16 16" fill="none" xmlns="http://www.w3.org/2000/svg" alt="youtube_icon" class="cursor" width="1"  height="1" ><path d="M15.627 3.749a2.005 2.005 0 0 0-1.411-1.416C12.972 2 7.98 2 7.98 2s-4.99 0-6.236.333A2.005 2.005 0 0 0 .333 3.75C0 4.996 0 7.6 0 7.6s0 2.604.333 3.851c.182.688.723 1.23 1.411 1.415 1.247.334 6.236.334 6.236.334s4.992 0 6.236-.333a2.005 2.005 0 0 0 1.411-1.416c.333-1.247.333-3.851.333-3.851s0-2.604-.333-3.851Z" fill="#000"></path><path d="m6.386 10 4.146-2.4-4.146-2.4V10Z" fill="#969696"></path></svg>